%TF.GenerationSoftware,KiCad,Pcbnew,8.0.0*%
%TF.CreationDate,2024-04-23T14:31:40+02:00*%
%TF.ProjectId,Board_mikrobus_Nice1280_TCXO,426f6172-645f-46d6-996b-726f6275735f,rev?*%
%TF.SameCoordinates,Original*%
%TF.FileFunction,Copper,L2,Bot*%
%TF.FilePolarity,Positive*%
%FSLAX46Y46*%
G04 Gerber Fmt 4.6, Leading zero omitted, Abs format (unit mm)*
G04 Created by KiCad (PCBNEW 8.0.0) date 2024-04-23 14:31:40*
%MOMM*%
%LPD*%
G01*
G04 APERTURE LIST*
%TA.AperFunction,ComponentPad*%
%ADD10R,1.445000X1.445000*%
%TD*%
%TA.AperFunction,ComponentPad*%
%ADD11C,1.445000*%
%TD*%
%TA.AperFunction,ViaPad*%
%ADD12C,0.800000*%
%TD*%
G04 APERTURE END LIST*
D10*
%TO.P,IC1,1,AN*%
%TO.N,BUSY*%
X126093000Y-75221000D03*
D11*
%TO.P,IC1,2,RST*%
%TO.N,RESET*%
X126093000Y-77761000D03*
%TO.P,IC1,3,CS*%
%TO.N,NSS*%
X126093000Y-80301000D03*
%TO.P,IC1,4,SCK*%
%TO.N,SCK*%
X126093000Y-82841000D03*
%TO.P,IC1,5,MISO*%
%TO.N,MISO*%
X126093000Y-85381000D03*
%TO.P,IC1,6,MOSI*%
%TO.N,MOSI*%
X126093000Y-87921000D03*
%TO.P,IC1,7,+3.3V*%
%TO.N,VCC*%
X126093000Y-90461000D03*
%TO.P,IC1,8,GND_1*%
%TO.N,GND*%
X126093000Y-93001000D03*
%TO.P,IC1,9,PWM*%
%TO.N,TXOEN*%
X148953000Y-75221000D03*
%TO.P,IC1,10,INT*%
%TO.N,DIO1*%
X148953000Y-77761000D03*
%TO.P,IC1,11,RX*%
%TO.N,unconnected-(IC1-Pad11)*%
X148953000Y-80301000D03*
%TO.P,IC1,12,TX*%
%TO.N,unconnected-(IC1-Pad12)*%
X148953000Y-82841000D03*
%TO.P,IC1,13,SCL*%
%TO.N,unconnected-(IC1-Pad13)*%
X148953000Y-85381000D03*
%TO.P,IC1,14,SDA*%
%TO.N,unconnected-(IC1-Pad14)*%
X148953000Y-87921000D03*
%TO.P,IC1,15,+5V*%
%TO.N,unconnected-(IC1-Pad15)*%
X148953000Y-90461000D03*
%TO.P,IC1,16,GND_2*%
%TO.N,GND*%
X148953000Y-93001000D03*
%TD*%
D12*
%TO.N,GND*%
X132722400Y-95566400D03*
X134595072Y-67651800D03*
X126093000Y-95566400D03*
X145286162Y-67651800D03*
X130318636Y-67651800D03*
X139097800Y-95566400D03*
X143147944Y-67651800D03*
X147632200Y-95566400D03*
X147424380Y-67651800D03*
X149613400Y-69963200D03*
X141231400Y-95566400D03*
X130512600Y-95566400D03*
X126042200Y-67651800D03*
X136733290Y-67651800D03*
X149562600Y-67651800D03*
X149765800Y-95566400D03*
X128180418Y-67651800D03*
X128302800Y-95566400D03*
X126042200Y-69887000D03*
X141009726Y-67651800D03*
X145498600Y-95566400D03*
X132456854Y-67651800D03*
X143365000Y-95566400D03*
X138871508Y-67651800D03*
%TD*%
%TA.AperFunction,Conductor*%
%TO.N,GND*%
G36*
X150927649Y-66605002D02*
G01*
X150974142Y-66658658D01*
X150985527Y-66710471D01*
X151111468Y-96684471D01*
X151091752Y-96752675D01*
X151038292Y-96799393D01*
X150985469Y-96811000D01*
X124060000Y-96811000D01*
X123991879Y-96790998D01*
X123945386Y-96737342D01*
X123934000Y-96685000D01*
X123934000Y-90461000D01*
X124857298Y-90461000D01*
X124876071Y-90675577D01*
X124905946Y-90787073D01*
X124931819Y-90883633D01*
X124931821Y-90883637D01*
X125022852Y-91078854D01*
X125146392Y-91255289D01*
X125146401Y-91255299D01*
X125298700Y-91407598D01*
X125298710Y-91407607D01*
X125475145Y-91531147D01*
X125659430Y-91617081D01*
X125712715Y-91663998D01*
X125732176Y-91732276D01*
X125711634Y-91800236D01*
X125659430Y-91845471D01*
X125475394Y-91931287D01*
X125475393Y-91931288D01*
X125420757Y-91969544D01*
X125420757Y-91969545D01*
X126013368Y-92562156D01*
X125921429Y-92586792D01*
X125820070Y-92645311D01*
X125737311Y-92728070D01*
X125678792Y-92829429D01*
X125654156Y-92921368D01*
X125061545Y-92328757D01*
X125061544Y-92328757D01*
X125023288Y-92383393D01*
X125023287Y-92383394D01*
X124932293Y-92578533D01*
X124932291Y-92578539D01*
X124876565Y-92786510D01*
X124857800Y-93001000D01*
X124876565Y-93215489D01*
X124932291Y-93423460D01*
X124932295Y-93423470D01*
X125023281Y-93618593D01*
X125061546Y-93673241D01*
X125654156Y-93080630D01*
X125678792Y-93172571D01*
X125737311Y-93273930D01*
X125820070Y-93356689D01*
X125921429Y-93415208D01*
X126013366Y-93439842D01*
X125420757Y-94032451D01*
X125420757Y-94032453D01*
X125475401Y-94070715D01*
X125475404Y-94070717D01*
X125670529Y-94161704D01*
X125670539Y-94161708D01*
X125878510Y-94217434D01*
X126093000Y-94236199D01*
X126307489Y-94217434D01*
X126515460Y-94161708D01*
X126515470Y-94161704D01*
X126710595Y-94070717D01*
X126710600Y-94070714D01*
X126765241Y-94032453D01*
X126765241Y-94032452D01*
X126172632Y-93439842D01*
X126264571Y-93415208D01*
X126365930Y-93356689D01*
X126448689Y-93273930D01*
X126507208Y-93172571D01*
X126531843Y-93080632D01*
X127124452Y-93673241D01*
X127124453Y-93673241D01*
X127162714Y-93618600D01*
X127162717Y-93618595D01*
X127253704Y-93423470D01*
X127253708Y-93423460D01*
X127309434Y-93215489D01*
X127328199Y-93001000D01*
X127309434Y-92786510D01*
X127253708Y-92578539D01*
X127253704Y-92578529D01*
X127162717Y-92383404D01*
X127162715Y-92383401D01*
X127124453Y-92328757D01*
X127124451Y-92328757D01*
X126531842Y-92921366D01*
X126507208Y-92829429D01*
X126448689Y-92728070D01*
X126365930Y-92645311D01*
X126264571Y-92586792D01*
X126172630Y-92562156D01*
X126765241Y-91969546D01*
X126710593Y-91931281D01*
X126526570Y-91845471D01*
X126473284Y-91798554D01*
X126453823Y-91730277D01*
X126474364Y-91662317D01*
X126526568Y-91617081D01*
X126710851Y-91531149D01*
X126710854Y-91531147D01*
X126887289Y-91407607D01*
X126887291Y-91407604D01*
X126887294Y-91407603D01*
X127039603Y-91255294D01*
X127163149Y-91078851D01*
X127254180Y-90883635D01*
X127309929Y-90675577D01*
X127328702Y-90461000D01*
X147717298Y-90461000D01*
X147736071Y-90675577D01*
X147765946Y-90787073D01*
X147791819Y-90883633D01*
X147791821Y-90883637D01*
X147882852Y-91078854D01*
X148006392Y-91255289D01*
X148006401Y-91255299D01*
X148158700Y-91407598D01*
X148158710Y-91407607D01*
X148335145Y-91531147D01*
X148519430Y-91617081D01*
X148572715Y-91663998D01*
X148592176Y-91732276D01*
X148571634Y-91800236D01*
X148519430Y-91845471D01*
X148335394Y-91931287D01*
X148335393Y-91931288D01*
X148280757Y-91969544D01*
X148280757Y-91969545D01*
X148873368Y-92562156D01*
X148781429Y-92586792D01*
X148680070Y-92645311D01*
X148597311Y-92728070D01*
X148538792Y-92829429D01*
X148514156Y-92921368D01*
X147921545Y-92328757D01*
X147921544Y-92328757D01*
X147883288Y-92383393D01*
X147883287Y-92383394D01*
X147792293Y-92578533D01*
X147792291Y-92578539D01*
X147736565Y-92786510D01*
X147717800Y-93001000D01*
X147736565Y-93215489D01*
X147792291Y-93423460D01*
X147792295Y-93423470D01*
X147883281Y-93618593D01*
X147921546Y-93673241D01*
X148514156Y-93080630D01*
X148538792Y-93172571D01*
X148597311Y-93273930D01*
X148680070Y-93356689D01*
X148781429Y-93415208D01*
X148873366Y-93439842D01*
X148280757Y-94032451D01*
X148280757Y-94032453D01*
X148335401Y-94070715D01*
X148335404Y-94070717D01*
X148530529Y-94161704D01*
X148530539Y-94161708D01*
X148738510Y-94217434D01*
X148953000Y-94236199D01*
X149167489Y-94217434D01*
X149375460Y-94161708D01*
X149375470Y-94161704D01*
X149570595Y-94070717D01*
X149570600Y-94070714D01*
X149625241Y-94032453D01*
X149625241Y-94032452D01*
X149032632Y-93439842D01*
X149124571Y-93415208D01*
X149225930Y-93356689D01*
X149308689Y-93273930D01*
X149367208Y-93172571D01*
X149391842Y-93080632D01*
X149984452Y-93673241D01*
X149984453Y-93673241D01*
X150022714Y-93618600D01*
X150022717Y-93618595D01*
X150113704Y-93423470D01*
X150113708Y-93423460D01*
X150169434Y-93215489D01*
X150188199Y-93001000D01*
X150169434Y-92786510D01*
X150113708Y-92578539D01*
X150113704Y-92578529D01*
X150022717Y-92383404D01*
X150022715Y-92383401D01*
X149984453Y-92328757D01*
X149984451Y-92328757D01*
X149391842Y-92921365D01*
X149367208Y-92829429D01*
X149308689Y-92728070D01*
X149225930Y-92645311D01*
X149124571Y-92586792D01*
X149032630Y-92562156D01*
X149625241Y-91969546D01*
X149570593Y-91931281D01*
X149386570Y-91845471D01*
X149333284Y-91798554D01*
X149313823Y-91730277D01*
X149334364Y-91662317D01*
X149386568Y-91617081D01*
X149570851Y-91531149D01*
X149570854Y-91531147D01*
X149747289Y-91407607D01*
X149747291Y-91407604D01*
X149747294Y-91407603D01*
X149899603Y-91255294D01*
X150023149Y-91078851D01*
X150114180Y-90883635D01*
X150169929Y-90675577D01*
X150188702Y-90461000D01*
X150169929Y-90246423D01*
X150114180Y-90038365D01*
X150023149Y-89843149D01*
X150023148Y-89843148D01*
X150023147Y-89843145D01*
X149899607Y-89666710D01*
X149899598Y-89666700D01*
X149747299Y-89514401D01*
X149747289Y-89514392D01*
X149570854Y-89390852D01*
X149469087Y-89343397D01*
X149387160Y-89305194D01*
X149333876Y-89258278D01*
X149314415Y-89190000D01*
X149334957Y-89122041D01*
X149387160Y-89076805D01*
X149570851Y-88991149D01*
X149570854Y-88991147D01*
X149747289Y-88867607D01*
X149747291Y-88867604D01*
X149747294Y-88867603D01*
X149899603Y-88715294D01*
X150023149Y-88538851D01*
X150114180Y-88343635D01*
X150169929Y-88135577D01*
X150188702Y-87921000D01*
X150169929Y-87706423D01*
X150114180Y-87498365D01*
X150023149Y-87303149D01*
X150023148Y-87303148D01*
X150023147Y-87303145D01*
X149899607Y-87126710D01*
X149899598Y-87126700D01*
X149747299Y-86974401D01*
X149747289Y-86974392D01*
X149570854Y-86850852D01*
X149469087Y-86803397D01*
X149387160Y-86765194D01*
X149333876Y-86718278D01*
X149314415Y-86650000D01*
X149334957Y-86582041D01*
X149387160Y-86536805D01*
X149570851Y-86451149D01*
X149570854Y-86451147D01*
X149747289Y-86327607D01*
X149747291Y-86327604D01*
X149747294Y-86327603D01*
X149899603Y-86175294D01*
X150023149Y-85998851D01*
X150114180Y-85803635D01*
X150169929Y-85595577D01*
X150188702Y-85381000D01*
X150169929Y-85166423D01*
X150114180Y-84958365D01*
X150023149Y-84763149D01*
X150023148Y-84763148D01*
X150023147Y-84763145D01*
X149899607Y-84586710D01*
X149899598Y-84586700D01*
X149747299Y-84434401D01*
X149747289Y-84434392D01*
X149570854Y-84310852D01*
X149469087Y-84263397D01*
X149387160Y-84225194D01*
X149333876Y-84178278D01*
X149314415Y-84110000D01*
X149334957Y-84042041D01*
X149387160Y-83996805D01*
X149570851Y-83911149D01*
X149570854Y-83911147D01*
X149747289Y-83787607D01*
X149747291Y-83787604D01*
X149747294Y-83787603D01*
X149899603Y-83635294D01*
X150023149Y-83458851D01*
X150114180Y-83263635D01*
X150169929Y-83055577D01*
X150188702Y-82841000D01*
X150169929Y-82626423D01*
X150114180Y-82418365D01*
X150023149Y-82223149D01*
X150023148Y-82223148D01*
X150023147Y-82223145D01*
X149899607Y-82046710D01*
X149899598Y-82046700D01*
X149747299Y-81894401D01*
X149747289Y-81894392D01*
X149570854Y-81770852D01*
X149469087Y-81723397D01*
X149387160Y-81685194D01*
X149333876Y-81638278D01*
X149314415Y-81570000D01*
X149334957Y-81502041D01*
X149387160Y-81456805D01*
X149570851Y-81371149D01*
X149570854Y-81371147D01*
X149747289Y-81247607D01*
X149747291Y-81247604D01*
X149747294Y-81247603D01*
X149899603Y-81095294D01*
X150023149Y-80918851D01*
X150114180Y-80723635D01*
X150169929Y-80515577D01*
X150188702Y-80301000D01*
X150169929Y-80086423D01*
X150114180Y-79878365D01*
X150023149Y-79683149D01*
X150023148Y-79683148D01*
X150023147Y-79683145D01*
X149899607Y-79506710D01*
X149899598Y-79506700D01*
X149747299Y-79354401D01*
X149747289Y-79354392D01*
X149570854Y-79230852D01*
X149469087Y-79183397D01*
X149387160Y-79145194D01*
X149333876Y-79098278D01*
X149314415Y-79030000D01*
X149334957Y-78962041D01*
X149387160Y-78916805D01*
X149570851Y-78831149D01*
X149570854Y-78831147D01*
X149747289Y-78707607D01*
X149747291Y-78707604D01*
X149747294Y-78707603D01*
X149899603Y-78555294D01*
X150023149Y-78378851D01*
X150114180Y-78183635D01*
X150169929Y-77975577D01*
X150188702Y-77761000D01*
X150169929Y-77546423D01*
X150114180Y-77338365D01*
X150023149Y-77143149D01*
X150023148Y-77143148D01*
X150023147Y-77143145D01*
X149899607Y-76966710D01*
X149899598Y-76966700D01*
X149747299Y-76814401D01*
X149747289Y-76814392D01*
X149570854Y-76690852D01*
X149469087Y-76643397D01*
X149387160Y-76605194D01*
X149333876Y-76558278D01*
X149314415Y-76490000D01*
X149334957Y-76422041D01*
X149387160Y-76376805D01*
X149570851Y-76291149D01*
X149570854Y-76291147D01*
X149747289Y-76167607D01*
X149747291Y-76167604D01*
X149747294Y-76167603D01*
X149899603Y-76015294D01*
X149915810Y-75992149D01*
X150023147Y-75838854D01*
X150023147Y-75838853D01*
X150023149Y-75838851D01*
X150114180Y-75643635D01*
X150169929Y-75435577D01*
X150188702Y-75221000D01*
X150169929Y-75006423D01*
X150114180Y-74798365D01*
X150023149Y-74603149D01*
X150023148Y-74603148D01*
X150023147Y-74603145D01*
X149899607Y-74426710D01*
X149899598Y-74426700D01*
X149747299Y-74274401D01*
X149747289Y-74274392D01*
X149570854Y-74150852D01*
X149375637Y-74059821D01*
X149375633Y-74059819D01*
X149279073Y-74033946D01*
X149167577Y-74004071D01*
X148953000Y-73985298D01*
X148738423Y-74004071D01*
X148682675Y-74019008D01*
X148530366Y-74059819D01*
X148530362Y-74059821D01*
X148335145Y-74150852D01*
X148158710Y-74274392D01*
X148158700Y-74274401D01*
X148006401Y-74426700D01*
X148006392Y-74426710D01*
X147882852Y-74603145D01*
X147791821Y-74798362D01*
X147791819Y-74798366D01*
X147751008Y-74950675D01*
X147736071Y-75006423D01*
X147717298Y-75221000D01*
X147736071Y-75435577D01*
X147765946Y-75547073D01*
X147791819Y-75643633D01*
X147791821Y-75643637D01*
X147882852Y-75838854D01*
X148006392Y-76015289D01*
X148006401Y-76015299D01*
X148158700Y-76167598D01*
X148158710Y-76167607D01*
X148335145Y-76291147D01*
X148335144Y-76291147D01*
X148518838Y-76376805D01*
X148572123Y-76423722D01*
X148591584Y-76492000D01*
X148571042Y-76559960D01*
X148518838Y-76605195D01*
X148335145Y-76690852D01*
X148158710Y-76814392D01*
X148158700Y-76814401D01*
X148006401Y-76966700D01*
X148006392Y-76966710D01*
X147882852Y-77143145D01*
X147791821Y-77338362D01*
X147791819Y-77338366D01*
X147751008Y-77490675D01*
X147736071Y-77546423D01*
X147717298Y-77761000D01*
X147736071Y-77975577D01*
X147765946Y-78087073D01*
X147791819Y-78183633D01*
X147791821Y-78183637D01*
X147882852Y-78378854D01*
X148006392Y-78555289D01*
X148006401Y-78555299D01*
X148158700Y-78707598D01*
X148158710Y-78707607D01*
X148335145Y-78831147D01*
X148335144Y-78831147D01*
X148518838Y-78916805D01*
X148572123Y-78963722D01*
X148591584Y-79032000D01*
X148571042Y-79099960D01*
X148518838Y-79145195D01*
X148335145Y-79230852D01*
X148158710Y-79354392D01*
X148158700Y-79354401D01*
X148006401Y-79506700D01*
X148006392Y-79506710D01*
X147882852Y-79683145D01*
X147791821Y-79878362D01*
X147791819Y-79878366D01*
X147751008Y-80030675D01*
X147736071Y-80086423D01*
X147717298Y-80301000D01*
X147736071Y-80515577D01*
X147765946Y-80627073D01*
X147791819Y-80723633D01*
X147791821Y-80723637D01*
X147882852Y-80918854D01*
X148006392Y-81095289D01*
X148006401Y-81095299D01*
X148158700Y-81247598D01*
X148158710Y-81247607D01*
X148335145Y-81371147D01*
X148335144Y-81371147D01*
X148518838Y-81456805D01*
X148572123Y-81503722D01*
X148591584Y-81572000D01*
X148571042Y-81639960D01*
X148518838Y-81685195D01*
X148335145Y-81770852D01*
X148158710Y-81894392D01*
X148158700Y-81894401D01*
X148006401Y-82046700D01*
X148006392Y-82046710D01*
X147882852Y-82223145D01*
X147791821Y-82418362D01*
X147791819Y-82418366D01*
X147751008Y-82570675D01*
X147736071Y-82626423D01*
X147717298Y-82841000D01*
X147736071Y-83055577D01*
X147765946Y-83167073D01*
X147791819Y-83263633D01*
X147791821Y-83263637D01*
X147882852Y-83458854D01*
X148006392Y-83635289D01*
X148006401Y-83635299D01*
X148158700Y-83787598D01*
X148158710Y-83787607D01*
X148335145Y-83911147D01*
X148335144Y-83911147D01*
X148518838Y-83996805D01*
X148572123Y-84043722D01*
X148591584Y-84112000D01*
X148571042Y-84179960D01*
X148518838Y-84225195D01*
X148335145Y-84310852D01*
X148158710Y-84434392D01*
X148158700Y-84434401D01*
X148006401Y-84586700D01*
X148006392Y-84586710D01*
X147882852Y-84763145D01*
X147791821Y-84958362D01*
X147791819Y-84958366D01*
X147751008Y-85110675D01*
X147736071Y-85166423D01*
X147717298Y-85381000D01*
X147736071Y-85595577D01*
X147765946Y-85707073D01*
X147791819Y-85803633D01*
X147791821Y-85803637D01*
X147882852Y-85998854D01*
X148006392Y-86175289D01*
X148006401Y-86175299D01*
X148158700Y-86327598D01*
X148158710Y-86327607D01*
X148335145Y-86451147D01*
X148335144Y-86451147D01*
X148518838Y-86536805D01*
X148572123Y-86583722D01*
X148591584Y-86652000D01*
X148571042Y-86719960D01*
X148518838Y-86765195D01*
X148335145Y-86850852D01*
X148158710Y-86974392D01*
X148158700Y-86974401D01*
X148006401Y-87126700D01*
X148006392Y-87126710D01*
X147882852Y-87303145D01*
X147791821Y-87498362D01*
X147791819Y-87498366D01*
X147751008Y-87650675D01*
X147736071Y-87706423D01*
X147717298Y-87921000D01*
X147736071Y-88135577D01*
X147765946Y-88247073D01*
X147791819Y-88343633D01*
X147791821Y-88343637D01*
X147882852Y-88538854D01*
X148006392Y-88715289D01*
X148006401Y-88715299D01*
X148158700Y-88867598D01*
X148158710Y-88867607D01*
X148335145Y-88991147D01*
X148335144Y-88991147D01*
X148518838Y-89076805D01*
X148572123Y-89123722D01*
X148591584Y-89192000D01*
X148571042Y-89259960D01*
X148518838Y-89305195D01*
X148335145Y-89390852D01*
X148158710Y-89514392D01*
X148158700Y-89514401D01*
X148006401Y-89666700D01*
X148006392Y-89666710D01*
X147882852Y-89843145D01*
X147791821Y-90038362D01*
X147791819Y-90038366D01*
X147751008Y-90190675D01*
X147736071Y-90246423D01*
X147717298Y-90461000D01*
X127328702Y-90461000D01*
X127309929Y-90246423D01*
X127254180Y-90038365D01*
X127163149Y-89843149D01*
X127163148Y-89843148D01*
X127163147Y-89843145D01*
X127039607Y-89666710D01*
X127039598Y-89666700D01*
X126887299Y-89514401D01*
X126887289Y-89514392D01*
X126710854Y-89390852D01*
X126609087Y-89343397D01*
X126527160Y-89305194D01*
X126473876Y-89258278D01*
X126454415Y-89190000D01*
X126474957Y-89122041D01*
X126527160Y-89076805D01*
X126710851Y-88991149D01*
X126710854Y-88991147D01*
X126887289Y-88867607D01*
X126887291Y-88867604D01*
X126887294Y-88867603D01*
X127039603Y-88715294D01*
X127163149Y-88538851D01*
X127254180Y-88343635D01*
X127309929Y-88135577D01*
X127328702Y-87921000D01*
X127309929Y-87706423D01*
X127254180Y-87498365D01*
X127163149Y-87303149D01*
X127163148Y-87303148D01*
X127163147Y-87303145D01*
X127039607Y-87126710D01*
X127039598Y-87126700D01*
X126887299Y-86974401D01*
X126887289Y-86974392D01*
X126710854Y-86850852D01*
X126609087Y-86803397D01*
X126527160Y-86765194D01*
X126473876Y-86718278D01*
X126454415Y-86650000D01*
X126474957Y-86582041D01*
X126527160Y-86536805D01*
X126710851Y-86451149D01*
X126710854Y-86451147D01*
X126887289Y-86327607D01*
X126887291Y-86327604D01*
X126887294Y-86327603D01*
X127039603Y-86175294D01*
X127163149Y-85998851D01*
X127254180Y-85803635D01*
X127309929Y-85595577D01*
X127328702Y-85381000D01*
X127309929Y-85166423D01*
X127254180Y-84958365D01*
X127163149Y-84763149D01*
X127163148Y-84763148D01*
X127163147Y-84763145D01*
X127039607Y-84586710D01*
X127039598Y-84586700D01*
X126887299Y-84434401D01*
X126887289Y-84434392D01*
X126710854Y-84310852D01*
X126609087Y-84263397D01*
X126527160Y-84225194D01*
X126473876Y-84178278D01*
X126454415Y-84110000D01*
X126474957Y-84042041D01*
X126527160Y-83996805D01*
X126710851Y-83911149D01*
X126710854Y-83911147D01*
X126887289Y-83787607D01*
X126887291Y-83787604D01*
X126887294Y-83787603D01*
X127039603Y-83635294D01*
X127163149Y-83458851D01*
X127254180Y-83263635D01*
X127309929Y-83055577D01*
X127328702Y-82841000D01*
X127309929Y-82626423D01*
X127254180Y-82418365D01*
X127163149Y-82223149D01*
X127163148Y-82223148D01*
X127163147Y-82223145D01*
X127039607Y-82046710D01*
X127039598Y-82046700D01*
X126887299Y-81894401D01*
X126887289Y-81894392D01*
X126710854Y-81770852D01*
X126609087Y-81723397D01*
X126527160Y-81685194D01*
X126473876Y-81638278D01*
X126454415Y-81570000D01*
X126474957Y-81502041D01*
X126527160Y-81456805D01*
X126710851Y-81371149D01*
X126710854Y-81371147D01*
X126887289Y-81247607D01*
X126887291Y-81247604D01*
X126887294Y-81247603D01*
X127039603Y-81095294D01*
X127163149Y-80918851D01*
X127254180Y-80723635D01*
X127309929Y-80515577D01*
X127328702Y-80301000D01*
X127309929Y-80086423D01*
X127254180Y-79878365D01*
X127163149Y-79683149D01*
X127163148Y-79683148D01*
X127163147Y-79683145D01*
X127039607Y-79506710D01*
X127039598Y-79506700D01*
X126887299Y-79354401D01*
X126887289Y-79354392D01*
X126710854Y-79230852D01*
X126609087Y-79183397D01*
X126527160Y-79145194D01*
X126473876Y-79098278D01*
X126454415Y-79030000D01*
X126474957Y-78962041D01*
X126527160Y-78916805D01*
X126710851Y-78831149D01*
X126710854Y-78831147D01*
X126887289Y-78707607D01*
X126887291Y-78707604D01*
X126887294Y-78707603D01*
X127039603Y-78555294D01*
X127163149Y-78378851D01*
X127254180Y-78183635D01*
X127309929Y-77975577D01*
X127328702Y-77761000D01*
X127309929Y-77546423D01*
X127254180Y-77338365D01*
X127163149Y-77143149D01*
X127163148Y-77143148D01*
X127163147Y-77143145D01*
X127039607Y-76966710D01*
X127039598Y-76966700D01*
X126887299Y-76814401D01*
X126887289Y-76814392D01*
X126710854Y-76690852D01*
X126706087Y-76688100D01*
X126707097Y-76686350D01*
X126660451Y-76645282D01*
X126640987Y-76577006D01*
X126661526Y-76509045D01*
X126715547Y-76462977D01*
X126766983Y-76452000D01*
X126864132Y-76452000D01*
X126864138Y-76452000D01*
X126864145Y-76451999D01*
X126864149Y-76451999D01*
X126924696Y-76445490D01*
X126924699Y-76445489D01*
X126924701Y-76445489D01*
X127061704Y-76394389D01*
X127078014Y-76382180D01*
X127178761Y-76306761D01*
X127266387Y-76189707D01*
X127266387Y-76189706D01*
X127266389Y-76189704D01*
X127317489Y-76052701D01*
X127324000Y-75992138D01*
X127324000Y-74449862D01*
X127321510Y-74426700D01*
X127317490Y-74389303D01*
X127317488Y-74389295D01*
X127266389Y-74252297D01*
X127266387Y-74252292D01*
X127178761Y-74135238D01*
X127061707Y-74047612D01*
X127061702Y-74047610D01*
X126924704Y-73996511D01*
X126924696Y-73996509D01*
X126864149Y-73990000D01*
X126864138Y-73990000D01*
X125321862Y-73990000D01*
X125321850Y-73990000D01*
X125261303Y-73996509D01*
X125261295Y-73996511D01*
X125124297Y-74047610D01*
X125124292Y-74047612D01*
X125007238Y-74135238D01*
X124919612Y-74252292D01*
X124919610Y-74252297D01*
X124868511Y-74389295D01*
X124868509Y-74389303D01*
X124862000Y-74449850D01*
X124862000Y-75992149D01*
X124868509Y-76052696D01*
X124868511Y-76052704D01*
X124919610Y-76189702D01*
X124919612Y-76189707D01*
X125007238Y-76306761D01*
X125124292Y-76394387D01*
X125124294Y-76394388D01*
X125124296Y-76394389D01*
X125183375Y-76416424D01*
X125261295Y-76445488D01*
X125261303Y-76445490D01*
X125321850Y-76451999D01*
X125321855Y-76451999D01*
X125321862Y-76452000D01*
X125321868Y-76452000D01*
X125419017Y-76452000D01*
X125487138Y-76472002D01*
X125533631Y-76525658D01*
X125543735Y-76595932D01*
X125514241Y-76660512D01*
X125479238Y-76686931D01*
X125479913Y-76688100D01*
X125475145Y-76690852D01*
X125298710Y-76814392D01*
X125298700Y-76814401D01*
X125146401Y-76966700D01*
X125146392Y-76966710D01*
X125022852Y-77143145D01*
X124931821Y-77338362D01*
X124931819Y-77338366D01*
X124891008Y-77490675D01*
X124876071Y-77546423D01*
X124857298Y-77761000D01*
X124876071Y-77975577D01*
X124905946Y-78087073D01*
X124931819Y-78183633D01*
X124931821Y-78183637D01*
X125022852Y-78378854D01*
X125146392Y-78555289D01*
X125146401Y-78555299D01*
X125298700Y-78707598D01*
X125298710Y-78707607D01*
X125475145Y-78831147D01*
X125475144Y-78831147D01*
X125658838Y-78916805D01*
X125712123Y-78963722D01*
X125731584Y-79032000D01*
X125711042Y-79099960D01*
X125658838Y-79145195D01*
X125475145Y-79230852D01*
X125298710Y-79354392D01*
X125298700Y-79354401D01*
X125146401Y-79506700D01*
X125146392Y-79506710D01*
X125022852Y-79683145D01*
X124931821Y-79878362D01*
X124931819Y-79878366D01*
X124891008Y-80030675D01*
X124876071Y-80086423D01*
X124857298Y-80301000D01*
X124876071Y-80515577D01*
X124905946Y-80627073D01*
X124931819Y-80723633D01*
X124931821Y-80723637D01*
X125022852Y-80918854D01*
X125146392Y-81095289D01*
X125146401Y-81095299D01*
X125298700Y-81247598D01*
X125298710Y-81247607D01*
X125475145Y-81371147D01*
X125475144Y-81371147D01*
X125658838Y-81456805D01*
X125712123Y-81503722D01*
X125731584Y-81572000D01*
X125711042Y-81639960D01*
X125658838Y-81685195D01*
X125475145Y-81770852D01*
X125298710Y-81894392D01*
X125298700Y-81894401D01*
X125146401Y-82046700D01*
X125146392Y-82046710D01*
X125022852Y-82223145D01*
X124931821Y-82418362D01*
X124931819Y-82418366D01*
X124891008Y-82570675D01*
X124876071Y-82626423D01*
X124857298Y-82841000D01*
X124876071Y-83055577D01*
X124905946Y-83167073D01*
X124931819Y-83263633D01*
X124931821Y-83263637D01*
X125022852Y-83458854D01*
X125146392Y-83635289D01*
X125146401Y-83635299D01*
X125298700Y-83787598D01*
X125298710Y-83787607D01*
X125475145Y-83911147D01*
X125475144Y-83911147D01*
X125658838Y-83996805D01*
X125712123Y-84043722D01*
X125731584Y-84112000D01*
X125711042Y-84179960D01*
X125658838Y-84225195D01*
X125475145Y-84310852D01*
X125298710Y-84434392D01*
X125298700Y-84434401D01*
X125146401Y-84586700D01*
X125146392Y-84586710D01*
X125022852Y-84763145D01*
X124931821Y-84958362D01*
X124931819Y-84958366D01*
X124891008Y-85110675D01*
X124876071Y-85166423D01*
X124857298Y-85381000D01*
X124876071Y-85595577D01*
X124905946Y-85707073D01*
X124931819Y-85803633D01*
X124931821Y-85803637D01*
X125022852Y-85998854D01*
X125146392Y-86175289D01*
X125146401Y-86175299D01*
X125298700Y-86327598D01*
X125298710Y-86327607D01*
X125475145Y-86451147D01*
X125475144Y-86451147D01*
X125658838Y-86536805D01*
X125712123Y-86583722D01*
X125731584Y-86652000D01*
X125711042Y-86719960D01*
X125658838Y-86765195D01*
X125475145Y-86850852D01*
X125298710Y-86974392D01*
X125298700Y-86974401D01*
X125146401Y-87126700D01*
X125146392Y-87126710D01*
X125022852Y-87303145D01*
X124931821Y-87498362D01*
X124931819Y-87498366D01*
X124891008Y-87650675D01*
X124876071Y-87706423D01*
X124857298Y-87921000D01*
X124876071Y-88135577D01*
X124905946Y-88247073D01*
X124931819Y-88343633D01*
X124931821Y-88343637D01*
X125022852Y-88538854D01*
X125146392Y-88715289D01*
X125146401Y-88715299D01*
X125298700Y-88867598D01*
X125298710Y-88867607D01*
X125475145Y-88991147D01*
X125475144Y-88991147D01*
X125658838Y-89076805D01*
X125712123Y-89123722D01*
X125731584Y-89192000D01*
X125711042Y-89259960D01*
X125658838Y-89305195D01*
X125475145Y-89390852D01*
X125298710Y-89514392D01*
X125298700Y-89514401D01*
X125146401Y-89666700D01*
X125146392Y-89666710D01*
X125022852Y-89843145D01*
X124931821Y-90038362D01*
X124931819Y-90038366D01*
X124891008Y-90190675D01*
X124876071Y-90246423D01*
X124857298Y-90461000D01*
X123934000Y-90461000D01*
X123934000Y-66711000D01*
X123954002Y-66642879D01*
X124007658Y-66596386D01*
X124060000Y-66585000D01*
X150859528Y-66585000D01*
X150927649Y-66605002D01*
G37*
%TD.AperFunction*%
%TD*%
M02*
