%TF.GenerationSoftware,KiCad,Pcbnew,8.0.0*%
%TF.CreationDate,2024-04-23T14:31:40+02:00*%
%TF.ProjectId,Board_mikrobus_Nice1280_TCXO,426f6172-645f-46d6-996b-726f6275735f,rev?*%
%TF.SameCoordinates,Original*%
%TF.FileFunction,Copper,L1,Top*%
%TF.FilePolarity,Positive*%
%FSLAX46Y46*%
G04 Gerber Fmt 4.6, Leading zero omitted, Abs format (unit mm)*
G04 Created by KiCad (PCBNEW 8.0.0) date 2024-04-23 14:31:40*
%MOMM*%
%LPD*%
G01*
G04 APERTURE LIST*
G04 Aperture macros list*
%AMRoundRect*
0 Rectangle with rounded corners*
0 $1 Rounding radius*
0 $2 $3 $4 $5 $6 $7 $8 $9 X,Y pos of 4 corners*
0 Add a 4 corners polygon primitive as box body*
4,1,4,$2,$3,$4,$5,$6,$7,$8,$9,$2,$3,0*
0 Add four circle primitives for the rounded corners*
1,1,$1+$1,$2,$3*
1,1,$1+$1,$4,$5*
1,1,$1+$1,$6,$7*
1,1,$1+$1,$8,$9*
0 Add four rect primitives between the rounded corners*
20,1,$1+$1,$2,$3,$4,$5,0*
20,1,$1+$1,$4,$5,$6,$7,0*
20,1,$1+$1,$6,$7,$8,$9,0*
20,1,$1+$1,$8,$9,$2,$3,0*%
G04 Aperture macros list end*
%TA.AperFunction,SMDPad,CuDef*%
%ADD10R,1.000000X2.000000*%
%TD*%
%TA.AperFunction,SMDPad,CuDef*%
%ADD11RoundRect,0.250000X-0.337500X-0.475000X0.337500X-0.475000X0.337500X0.475000X-0.337500X0.475000X0*%
%TD*%
%TA.AperFunction,SMDPad,CuDef*%
%ADD12R,1.000000X1.000000*%
%TD*%
%TA.AperFunction,SMDPad,CuDef*%
%ADD13R,1.050000X2.200000*%
%TD*%
%TA.AperFunction,ComponentPad*%
%ADD14R,1.445000X1.445000*%
%TD*%
%TA.AperFunction,ComponentPad*%
%ADD15C,1.445000*%
%TD*%
%TA.AperFunction,ViaPad*%
%ADD16C,0.800000*%
%TD*%
%TA.AperFunction,Conductor*%
%ADD17C,0.800000*%
%TD*%
%TA.AperFunction,Conductor*%
%ADD18C,0.250000*%
%TD*%
%TA.AperFunction,Conductor*%
%ADD19C,0.500000*%
%TD*%
G04 APERTURE END LIST*
D10*
%TO.P,U1,1,DIO2*%
%TO.N,DIO2*%
X130777000Y-91857000D03*
%TO.P,U1,2,DIO3*%
%TO.N,DIO3*%
X132777000Y-91857000D03*
%TO.P,U1,3,VCC*%
%TO.N,VCC*%
X134777000Y-91857000D03*
%TO.P,U1,4,GND*%
%TO.N,GND*%
X136777000Y-91857000D03*
%TO.P,U1,5,MISO*%
%TO.N,MISO*%
X138777000Y-91857000D03*
%TO.P,U1,6,MOSI*%
%TO.N,MOSI*%
X140777000Y-91857000D03*
%TO.P,U1,7,SCK*%
%TO.N,SCK*%
X142777000Y-91857000D03*
%TO.P,U1,8,NSS*%
%TO.N,NSS*%
X144777000Y-91857000D03*
%TO.P,U1,9,ANT*%
%TO.N,Net-(J1-Pad1)*%
X144777000Y-75857000D03*
%TO.P,U1,10,GND*%
%TO.N,GND*%
X142777000Y-75857000D03*
%TO.P,U1,11,GND*%
X140777000Y-75857000D03*
%TO.P,U1,12,GND*%
X138777000Y-75857000D03*
%TO.P,U1,13,NRESET*%
%TO.N,RESET*%
X136777000Y-75857000D03*
%TO.P,U1,14,TCXOEN*%
%TO.N,TXOEN*%
X134777000Y-75857000D03*
%TO.P,U1,15,BUSY*%
%TO.N,BUSY*%
X132777000Y-75857000D03*
%TO.P,U1,16,DIO1*%
%TO.N,DIO1*%
X130777000Y-75857000D03*
%TD*%
D11*
%TO.P,C1,1*%
%TO.N,VCC*%
X134707500Y-95541000D03*
%TO.P,C1,2*%
%TO.N,GND*%
X136782500Y-95541000D03*
%TD*%
D12*
%TO.P,J1,1,In*%
%TO.N,Net-(J1-Pad1)*%
X144762000Y-71895000D03*
%TO.P,J1,2,Ext*%
%TO.N,GND*%
X144762000Y-68895000D03*
D13*
X143287000Y-70395000D03*
X146237000Y-70395000D03*
%TD*%
D14*
%TO.P,IC1,1,AN*%
%TO.N,BUSY*%
X126093000Y-75221000D03*
D15*
%TO.P,IC1,2,RST*%
%TO.N,RESET*%
X126093000Y-77761000D03*
%TO.P,IC1,3,CS*%
%TO.N,NSS*%
X126093000Y-80301000D03*
%TO.P,IC1,4,SCK*%
%TO.N,SCK*%
X126093000Y-82841000D03*
%TO.P,IC1,5,MISO*%
%TO.N,MISO*%
X126093000Y-85381000D03*
%TO.P,IC1,6,MOSI*%
%TO.N,MOSI*%
X126093000Y-87921000D03*
%TO.P,IC1,7,+3.3V*%
%TO.N,VCC*%
X126093000Y-90461000D03*
%TO.P,IC1,8,GND_1*%
%TO.N,GND*%
X126093000Y-93001000D03*
%TO.P,IC1,9,PWM*%
%TO.N,TXOEN*%
X148953000Y-75221000D03*
%TO.P,IC1,10,INT*%
%TO.N,DIO1*%
X148953000Y-77761000D03*
%TO.P,IC1,11,RX*%
%TO.N,unconnected-(IC1-Pad11)*%
X148953000Y-80301000D03*
%TO.P,IC1,12,TX*%
%TO.N,unconnected-(IC1-Pad12)*%
X148953000Y-82841000D03*
%TO.P,IC1,13,SCL*%
%TO.N,unconnected-(IC1-Pad13)*%
X148953000Y-85381000D03*
%TO.P,IC1,14,SDA*%
%TO.N,unconnected-(IC1-Pad14)*%
X148953000Y-87921000D03*
%TO.P,IC1,15,+5V*%
%TO.N,unconnected-(IC1-Pad15)*%
X148953000Y-90461000D03*
%TO.P,IC1,16,GND_2*%
%TO.N,GND*%
X148953000Y-93001000D03*
%TD*%
D16*
%TO.N,GND*%
X132722400Y-95566400D03*
X134595072Y-67651800D03*
X126093000Y-95566400D03*
X145286162Y-67651800D03*
X130318636Y-67651800D03*
X139097800Y-95566400D03*
X143147944Y-67651800D03*
X147632200Y-95566400D03*
X147424380Y-67651800D03*
X149613400Y-69963200D03*
X141231400Y-95566400D03*
X130512600Y-95566400D03*
X126042200Y-67651800D03*
X136733290Y-67651800D03*
X149562600Y-67651800D03*
X149765800Y-95566400D03*
X128180418Y-67651800D03*
X128302800Y-95566400D03*
X126042200Y-69887000D03*
X141009726Y-67651800D03*
X145498600Y-95566400D03*
X132456854Y-67651800D03*
X143365000Y-95566400D03*
X138871508Y-67651800D03*
%TD*%
D17*
%TO.N,GND*%
X136777000Y-95535500D02*
X136782500Y-95541000D01*
X143287000Y-70395000D02*
X143287000Y-70370000D01*
X144762000Y-68895000D02*
X144762000Y-68920000D01*
%TO.N,VCC*%
X126093000Y-90461000D02*
X128633000Y-87921000D01*
X134777000Y-95471500D02*
X134707500Y-95541000D01*
X132641000Y-87921000D02*
X134777000Y-90057000D01*
X128633000Y-87921000D02*
X132641000Y-87921000D01*
X134777000Y-91857000D02*
X134777000Y-95471500D01*
X134777000Y-90057000D02*
X134777000Y-91857000D01*
D18*
%TO.N,MISO*%
X126093000Y-85381000D02*
X136507000Y-85381000D01*
X136507000Y-85381000D02*
X138777000Y-87651000D01*
X138777000Y-87651000D02*
X138777000Y-91857000D01*
%TO.N,NSS*%
X141460000Y-80301000D02*
X144777000Y-83618000D01*
X126093000Y-80301000D02*
X141460000Y-80301000D01*
X144777000Y-83618000D02*
X144777000Y-91857000D01*
%TO.N,MOSI*%
X139174000Y-84111000D02*
X140777000Y-85714000D01*
X124442000Y-84492000D02*
X124823000Y-84111000D01*
X124823000Y-84111000D02*
X139174000Y-84111000D01*
X140777000Y-85714000D02*
X140777000Y-91857000D01*
X124442000Y-86270000D02*
X124442000Y-84492000D01*
X126093000Y-87921000D02*
X124442000Y-86270000D01*
%TO.N,SCK*%
X142777000Y-85682000D02*
X142777000Y-91857000D01*
X139936000Y-82841000D02*
X142777000Y-85682000D01*
X126093000Y-82841000D02*
X139936000Y-82841000D01*
%TO.N,RESET*%
X124442000Y-73697000D02*
X125526520Y-72612480D01*
X126093000Y-77761000D02*
X124950000Y-77761000D01*
X136777000Y-74475000D02*
X136777000Y-75857000D01*
X124442000Y-77253000D02*
X124442000Y-73697000D01*
X124950000Y-77761000D02*
X124442000Y-77253000D01*
X134914480Y-72612480D02*
X136777000Y-74475000D01*
X125526520Y-72612480D02*
X134914480Y-72612480D01*
%TO.N,BUSY*%
X132824000Y-73824000D02*
X132777000Y-73871000D01*
X126093000Y-75221000D02*
X127744000Y-73570000D01*
X127744000Y-73570000D02*
X132570000Y-73570000D01*
X132570000Y-73570000D02*
X132824000Y-73824000D01*
X132777000Y-73871000D02*
X132777000Y-75857000D01*
%TO.N,DIO1*%
X130777000Y-78254000D02*
X131622520Y-79099520D01*
X130777000Y-75857000D02*
X130777000Y-78254000D01*
X131622520Y-79099520D02*
X147614480Y-79099520D01*
X147614480Y-79099520D02*
X148953000Y-77761000D01*
%TO.N,TXOEN*%
X146159000Y-78015000D02*
X148953000Y-75221000D01*
X134777000Y-75857000D02*
X134777000Y-76920000D01*
X134777000Y-76920000D02*
X135872000Y-78015000D01*
X135872000Y-78015000D02*
X146159000Y-78015000D01*
%TO.N,Net-(J1-Pad1)*%
X144777000Y-71910000D02*
X144762000Y-71895000D01*
D19*
X144777000Y-75857000D02*
X144777000Y-71910000D01*
%TD*%
%TA.AperFunction,Conductor*%
%TO.N,GND*%
G36*
X150873005Y-66477707D02*
G01*
X150942246Y-66532926D01*
X150980673Y-66612718D01*
X150985661Y-66656337D01*
X151085928Y-96736451D01*
X151066509Y-96822859D01*
X151011521Y-96892284D01*
X150931857Y-96930976D01*
X150885059Y-96936105D01*
X135801374Y-96794341D01*
X135715220Y-96773823D01*
X135646500Y-96717957D01*
X135608826Y-96637806D01*
X135609658Y-96549247D01*
X135633872Y-96490880D01*
X135637709Y-96484658D01*
X135637712Y-96484656D01*
X135729814Y-96335334D01*
X135784999Y-96168797D01*
X135795500Y-96066009D01*
X135795499Y-95015992D01*
X135784999Y-94913203D01*
X135729814Y-94746666D01*
X135707127Y-94709884D01*
X135678573Y-94626050D01*
X135677500Y-94605415D01*
X135677500Y-93223400D01*
X135697207Y-93137057D01*
X135717191Y-93104145D01*
X135720796Y-93099331D01*
X135771091Y-92964483D01*
X135777500Y-92904873D01*
X135777499Y-90809128D01*
X135777499Y-90809127D01*
X135777499Y-90809123D01*
X135771091Y-90749518D01*
X135742995Y-90674187D01*
X135720796Y-90614669D01*
X135720792Y-90614664D01*
X135720790Y-90614660D01*
X135717192Y-90609853D01*
X135681225Y-90528922D01*
X135677500Y-90490598D01*
X135677500Y-89968304D01*
X135642896Y-89794339D01*
X135642894Y-89794332D01*
X135592167Y-89671868D01*
X135592166Y-89671865D01*
X135575013Y-89630453D01*
X135575011Y-89630450D01*
X135501577Y-89520549D01*
X135476464Y-89482964D01*
X133215036Y-87221536D01*
X133130636Y-87165142D01*
X133130632Y-87165139D01*
X133067549Y-87122988D01*
X133067546Y-87122986D01*
X132985606Y-87089046D01*
X132985604Y-87089045D01*
X132913472Y-87059167D01*
X132903666Y-87055105D01*
X132903663Y-87055104D01*
X132903662Y-87055104D01*
X132729695Y-87020500D01*
X132729692Y-87020500D01*
X132729691Y-87020500D01*
X128544309Y-87020500D01*
X128515576Y-87026215D01*
X128370339Y-87055104D01*
X128370334Y-87055105D01*
X128370334Y-87055106D01*
X128360530Y-87059167D01*
X128206449Y-87122988D01*
X128058967Y-87221534D01*
X128058966Y-87221535D01*
X128058965Y-87221536D01*
X128058964Y-87221537D01*
X127925790Y-87354711D01*
X127602942Y-87677558D01*
X127527953Y-87724676D01*
X127439947Y-87734592D01*
X127356353Y-87705341D01*
X127293730Y-87642717D01*
X127270009Y-87588348D01*
X127246634Y-87501112D01*
X127246631Y-87501105D01*
X127231449Y-87468548D01*
X127156195Y-87307164D01*
X127156194Y-87307162D01*
X127156193Y-87307160D01*
X127033450Y-87131866D01*
X126882133Y-86980549D01*
X126706839Y-86857806D01*
X126706836Y-86857804D01*
X126650114Y-86831355D01*
X126580189Y-86777005D01*
X126540771Y-86697697D01*
X126539667Y-86609141D01*
X126577096Y-86528875D01*
X126645644Y-86472798D01*
X126650114Y-86470645D01*
X126706836Y-86444195D01*
X126706839Y-86444193D01*
X126882133Y-86321450D01*
X127033446Y-86170137D01*
X127033451Y-86170132D01*
X127088610Y-86091356D01*
X127154277Y-86031934D01*
X127239224Y-86006886D01*
X127251620Y-86006500D01*
X136165482Y-86006500D01*
X136251825Y-86026207D01*
X136306196Y-86064786D01*
X138093214Y-87851804D01*
X138140333Y-87926792D01*
X138151500Y-87992518D01*
X138151500Y-90231460D01*
X138131793Y-90317803D01*
X138076574Y-90387044D01*
X138046039Y-90404333D01*
X138047159Y-90406384D01*
X138034667Y-90413204D01*
X137919453Y-90499453D01*
X137833207Y-90614664D01*
X137833204Y-90614669D01*
X137782909Y-90749517D01*
X137776500Y-90809127D01*
X137776500Y-90809128D01*
X137776500Y-90809132D01*
X137776500Y-92904876D01*
X137782908Y-92964481D01*
X137833203Y-93099329D01*
X137833207Y-93099335D01*
X137919453Y-93214546D01*
X137951328Y-93238407D01*
X138034669Y-93300796D01*
X138169517Y-93351091D01*
X138229127Y-93357500D01*
X139324872Y-93357499D01*
X139324876Y-93357499D01*
X139364612Y-93353227D01*
X139384483Y-93351091D01*
X139519331Y-93300796D01*
X139634546Y-93214546D01*
X139634547Y-93214545D01*
X139636286Y-93212807D01*
X139639920Y-93210523D01*
X139645940Y-93206017D01*
X139646308Y-93206509D01*
X139711274Y-93165688D01*
X139799281Y-93155772D01*
X139882874Y-93185023D01*
X139917714Y-93212807D01*
X139919452Y-93214545D01*
X139951328Y-93238407D01*
X140034669Y-93300796D01*
X140169517Y-93351091D01*
X140229127Y-93357500D01*
X141324872Y-93357499D01*
X141324876Y-93357499D01*
X141364612Y-93353227D01*
X141384483Y-93351091D01*
X141519331Y-93300796D01*
X141634546Y-93214546D01*
X141634547Y-93214545D01*
X141636286Y-93212807D01*
X141639920Y-93210523D01*
X141645940Y-93206017D01*
X141646308Y-93206509D01*
X141711274Y-93165688D01*
X141799281Y-93155772D01*
X141882874Y-93185023D01*
X141917714Y-93212807D01*
X141919452Y-93214545D01*
X141951328Y-93238407D01*
X142034669Y-93300796D01*
X142169517Y-93351091D01*
X142229127Y-93357500D01*
X143324872Y-93357499D01*
X143324876Y-93357499D01*
X143364612Y-93353227D01*
X143384483Y-93351091D01*
X143519331Y-93300796D01*
X143634546Y-93214546D01*
X143634547Y-93214545D01*
X143636286Y-93212807D01*
X143639920Y-93210523D01*
X143645940Y-93206017D01*
X143646308Y-93206509D01*
X143711274Y-93165688D01*
X143799281Y-93155772D01*
X143882874Y-93185023D01*
X143917714Y-93212807D01*
X143919452Y-93214545D01*
X143951328Y-93238407D01*
X144034669Y-93300796D01*
X144169517Y-93351091D01*
X144229127Y-93357500D01*
X145324872Y-93357499D01*
X145324876Y-93357499D01*
X145364612Y-93353227D01*
X145384483Y-93351091D01*
X145519331Y-93300796D01*
X145634546Y-93214546D01*
X145720796Y-93099331D01*
X145771091Y-92964483D01*
X145777500Y-92904873D01*
X145777499Y-90809128D01*
X145777499Y-90809127D01*
X145777499Y-90809123D01*
X145771091Y-90749518D01*
X145742995Y-90674187D01*
X145720796Y-90614669D01*
X145640562Y-90507490D01*
X145634546Y-90499453D01*
X145519332Y-90413204D01*
X145506841Y-90406384D01*
X145508838Y-90402725D01*
X145457913Y-90369242D01*
X145412352Y-90293297D01*
X145402500Y-90231460D01*
X145402500Y-83556392D01*
X145382299Y-83454837D01*
X145382299Y-83454835D01*
X145378463Y-83435548D01*
X145332503Y-83324591D01*
X145331313Y-83321717D01*
X145331310Y-83321712D01*
X145290672Y-83260894D01*
X145262858Y-83219267D01*
X145175733Y-83132142D01*
X145175732Y-83132141D01*
X142108323Y-80064733D01*
X142061205Y-79989746D01*
X142051289Y-79901739D01*
X142080540Y-79818146D01*
X142143164Y-79755522D01*
X142226757Y-79726271D01*
X142249038Y-79725020D01*
X147581849Y-79725020D01*
X147668192Y-79744727D01*
X147737433Y-79799946D01*
X147775860Y-79879738D01*
X147775860Y-79968302D01*
X147774074Y-79975497D01*
X147743979Y-80087817D01*
X147725328Y-80301000D01*
X147743979Y-80514183D01*
X147743979Y-80514186D01*
X147743980Y-80514187D01*
X147799366Y-80720890D01*
X147799368Y-80720894D01*
X147889804Y-80914835D01*
X147889806Y-80914839D01*
X148012549Y-81090133D01*
X148163866Y-81241450D01*
X148339160Y-81364193D01*
X148395886Y-81390645D01*
X148465810Y-81444996D01*
X148505228Y-81524304D01*
X148506331Y-81612861D01*
X148468903Y-81693126D01*
X148400354Y-81749203D01*
X148395886Y-81751355D01*
X148339160Y-81777806D01*
X148163866Y-81900549D01*
X148012549Y-82051866D01*
X147889806Y-82227160D01*
X147889804Y-82227164D01*
X147799368Y-82421105D01*
X147799366Y-82421109D01*
X147790657Y-82453613D01*
X147743979Y-82627817D01*
X147725328Y-82841000D01*
X147743979Y-83054183D01*
X147743979Y-83054186D01*
X147743980Y-83054187D01*
X147799366Y-83260890D01*
X147799368Y-83260894D01*
X147889804Y-83454835D01*
X147889805Y-83454837D01*
X148012549Y-83630133D01*
X148163866Y-83781450D01*
X148339160Y-83904193D01*
X148395886Y-83930645D01*
X148465810Y-83984996D01*
X148505228Y-84064304D01*
X148506331Y-84152861D01*
X148468903Y-84233126D01*
X148400354Y-84289203D01*
X148395886Y-84291355D01*
X148339160Y-84317806D01*
X148163866Y-84440549D01*
X148012549Y-84591866D01*
X147889806Y-84767160D01*
X147889804Y-84767164D01*
X147799368Y-84961105D01*
X147799366Y-84961109D01*
X147793697Y-84982267D01*
X147743979Y-85167817D01*
X147725328Y-85381000D01*
X147743979Y-85594183D01*
X147743979Y-85594186D01*
X147743980Y-85594187D01*
X147799366Y-85800890D01*
X147799368Y-85800894D01*
X147889804Y-85994835D01*
X147889806Y-85994839D01*
X148012549Y-86170133D01*
X148163866Y-86321450D01*
X148339160Y-86444193D01*
X148395886Y-86470645D01*
X148465810Y-86524996D01*
X148505228Y-86604304D01*
X148506331Y-86692861D01*
X148468903Y-86773126D01*
X148400354Y-86829203D01*
X148395886Y-86831355D01*
X148339160Y-86857806D01*
X148163866Y-86980549D01*
X148012549Y-87131866D01*
X147889806Y-87307160D01*
X147889806Y-87307162D01*
X147799368Y-87501105D01*
X147799366Y-87501109D01*
X147744642Y-87705341D01*
X147743979Y-87707817D01*
X147725328Y-87921000D01*
X147743979Y-88134183D01*
X147743979Y-88134186D01*
X147743980Y-88134187D01*
X147799366Y-88340890D01*
X147799368Y-88340894D01*
X147889804Y-88534835D01*
X147889806Y-88534839D01*
X148012549Y-88710133D01*
X148163866Y-88861450D01*
X148339160Y-88984193D01*
X148395886Y-89010645D01*
X148465810Y-89064996D01*
X148505228Y-89144304D01*
X148506331Y-89232861D01*
X148468903Y-89313126D01*
X148400354Y-89369203D01*
X148395886Y-89371355D01*
X148339160Y-89397806D01*
X148163866Y-89520549D01*
X148012551Y-89671865D01*
X147889806Y-89847160D01*
X147889804Y-89847164D01*
X147799368Y-90041105D01*
X147799366Y-90041109D01*
X147762209Y-90179781D01*
X147743979Y-90247817D01*
X147725328Y-90461000D01*
X147743979Y-90674183D01*
X147743979Y-90674186D01*
X147743980Y-90674187D01*
X147799366Y-90880890D01*
X147799368Y-90880894D01*
X147889804Y-91074835D01*
X147889806Y-91074839D01*
X148012549Y-91250133D01*
X148163866Y-91401450D01*
X148339160Y-91524193D01*
X148339164Y-91524195D01*
X148533111Y-91614634D01*
X148739817Y-91670021D01*
X148953000Y-91688672D01*
X149166183Y-91670021D01*
X149372889Y-91614634D01*
X149566836Y-91524195D01*
X149742132Y-91401451D01*
X149893451Y-91250132D01*
X150016195Y-91074836D01*
X150106634Y-90880889D01*
X150162021Y-90674183D01*
X150180672Y-90461000D01*
X150162021Y-90247817D01*
X150106634Y-90041111D01*
X150016195Y-89847164D01*
X150016193Y-89847160D01*
X149893449Y-89671865D01*
X149742133Y-89520549D01*
X149566839Y-89397806D01*
X149566836Y-89397804D01*
X149510114Y-89371355D01*
X149440189Y-89317005D01*
X149400771Y-89237697D01*
X149399667Y-89149141D01*
X149437096Y-89068875D01*
X149505644Y-89012798D01*
X149510114Y-89010645D01*
X149566836Y-88984195D01*
X149566839Y-88984193D01*
X149742133Y-88861450D01*
X149893450Y-88710133D01*
X150016193Y-88534839D01*
X150016195Y-88534835D01*
X150106634Y-88340889D01*
X150162021Y-88134183D01*
X150180672Y-87921000D01*
X150162021Y-87707817D01*
X150106634Y-87501111D01*
X150016195Y-87307164D01*
X150016194Y-87307162D01*
X150016193Y-87307160D01*
X149893450Y-87131866D01*
X149742133Y-86980549D01*
X149566839Y-86857806D01*
X149566836Y-86857804D01*
X149510114Y-86831355D01*
X149440189Y-86777005D01*
X149400771Y-86697697D01*
X149399667Y-86609141D01*
X149437096Y-86528875D01*
X149505644Y-86472798D01*
X149510114Y-86470645D01*
X149566836Y-86444195D01*
X149566839Y-86444193D01*
X149742133Y-86321450D01*
X149893450Y-86170133D01*
X150016193Y-85994839D01*
X150016195Y-85994835D01*
X150026335Y-85973090D01*
X150106634Y-85800889D01*
X150162021Y-85594183D01*
X150180672Y-85381000D01*
X150162021Y-85167817D01*
X150106634Y-84961111D01*
X150016195Y-84767164D01*
X150016193Y-84767160D01*
X149893450Y-84591866D01*
X149742133Y-84440549D01*
X149566839Y-84317806D01*
X149566836Y-84317804D01*
X149510114Y-84291355D01*
X149440189Y-84237005D01*
X149400771Y-84157697D01*
X149399667Y-84069141D01*
X149437096Y-83988875D01*
X149505644Y-83932798D01*
X149510114Y-83930645D01*
X149566836Y-83904195D01*
X149566839Y-83904193D01*
X149610892Y-83873346D01*
X149742132Y-83781451D01*
X149893451Y-83630132D01*
X149945084Y-83556393D01*
X150016195Y-83454837D01*
X150016195Y-83454835D01*
X150025191Y-83435543D01*
X150106634Y-83260889D01*
X150162021Y-83054183D01*
X150180672Y-82841000D01*
X150162021Y-82627817D01*
X150106634Y-82421111D01*
X150016195Y-82227164D01*
X150016193Y-82227160D01*
X149893450Y-82051866D01*
X149742133Y-81900549D01*
X149566839Y-81777806D01*
X149566836Y-81777804D01*
X149510114Y-81751355D01*
X149440189Y-81697005D01*
X149400771Y-81617697D01*
X149399667Y-81529141D01*
X149437096Y-81448875D01*
X149505644Y-81392798D01*
X149510114Y-81390645D01*
X149566836Y-81364195D01*
X149566839Y-81364193D01*
X149742133Y-81241450D01*
X149893450Y-81090133D01*
X150016193Y-80914839D01*
X150016195Y-80914835D01*
X150106634Y-80720889D01*
X150162021Y-80514183D01*
X150180672Y-80301000D01*
X150162021Y-80087817D01*
X150106634Y-79881111D01*
X150016195Y-79687164D01*
X150016193Y-79687160D01*
X149893450Y-79511866D01*
X149742133Y-79360549D01*
X149566839Y-79237806D01*
X149566836Y-79237804D01*
X149510114Y-79211355D01*
X149440189Y-79157005D01*
X149400771Y-79077697D01*
X149399667Y-78989141D01*
X149437096Y-78908875D01*
X149505644Y-78852798D01*
X149510114Y-78850645D01*
X149566836Y-78824195D01*
X149566839Y-78824193D01*
X149742133Y-78701450D01*
X149893450Y-78550133D01*
X150016193Y-78374839D01*
X150016195Y-78374835D01*
X150106634Y-78180889D01*
X150162021Y-77974183D01*
X150180672Y-77761000D01*
X150162021Y-77547817D01*
X150106634Y-77341111D01*
X150016195Y-77147164D01*
X150016193Y-77147160D01*
X149893450Y-76971866D01*
X149742133Y-76820549D01*
X149566839Y-76697806D01*
X149566836Y-76697804D01*
X149510114Y-76671355D01*
X149440189Y-76617005D01*
X149400771Y-76537697D01*
X149399667Y-76449141D01*
X149437096Y-76368875D01*
X149505644Y-76312798D01*
X149510114Y-76310645D01*
X149566836Y-76284195D01*
X149566839Y-76284193D01*
X149742133Y-76161450D01*
X149893450Y-76010133D01*
X150016193Y-75834839D01*
X150016195Y-75834835D01*
X150106634Y-75640889D01*
X150162021Y-75434183D01*
X150180672Y-75221000D01*
X150162021Y-75007817D01*
X150106634Y-74801111D01*
X150016195Y-74607164D01*
X150016193Y-74607160D01*
X149893450Y-74431866D01*
X149742133Y-74280549D01*
X149566839Y-74157806D01*
X149566835Y-74157804D01*
X149372894Y-74067368D01*
X149372890Y-74067366D01*
X149166187Y-74011980D01*
X149166186Y-74011979D01*
X149166183Y-74011979D01*
X148953000Y-73993328D01*
X148739817Y-74011979D01*
X148739813Y-74011979D01*
X148739812Y-74011980D01*
X148533109Y-74067366D01*
X148533105Y-74067368D01*
X148339164Y-74157804D01*
X148339160Y-74157806D01*
X148163866Y-74280549D01*
X148012549Y-74431866D01*
X147889806Y-74607160D01*
X147889804Y-74607164D01*
X147799368Y-74801105D01*
X147799366Y-74801109D01*
X147743980Y-75007812D01*
X147743979Y-75007817D01*
X147725328Y-75221000D01*
X147744736Y-75442839D01*
X147741861Y-75443090D01*
X147738224Y-75515280D01*
X147695831Y-75593038D01*
X147687402Y-75602005D01*
X146088495Y-77200914D01*
X146013507Y-77248033D01*
X145925500Y-77257949D01*
X145841907Y-77228698D01*
X145779283Y-77166074D01*
X145750032Y-77082481D01*
X145759948Y-76994475D01*
X145761293Y-76990751D01*
X145771091Y-76964483D01*
X145777500Y-76904873D01*
X145777499Y-74809128D01*
X145777499Y-74809127D01*
X145777499Y-74809123D01*
X145771091Y-74749518D01*
X145720796Y-74614670D01*
X145720796Y-74614669D01*
X145656647Y-74528977D01*
X145634545Y-74499452D01*
X145607242Y-74479013D01*
X145549932Y-74411493D01*
X145527593Y-74325793D01*
X145527500Y-74319707D01*
X145527500Y-72921062D01*
X145547207Y-72834719D01*
X145602426Y-72765478D01*
X145607176Y-72761805D01*
X145619546Y-72752546D01*
X145705796Y-72637331D01*
X145756091Y-72502483D01*
X145762500Y-72442873D01*
X145762499Y-71347128D01*
X145762499Y-71347127D01*
X145762499Y-71347123D01*
X145756091Y-71287518D01*
X145705796Y-71152669D01*
X145699142Y-71140484D01*
X145675057Y-71055259D01*
X145674820Y-71048012D01*
X145651000Y-69404400D01*
X143822200Y-69404400D01*
X143846020Y-71048012D01*
X143827566Y-71134632D01*
X143821705Y-71146256D01*
X143818205Y-71152665D01*
X143818204Y-71152669D01*
X143767909Y-71287517D01*
X143761500Y-71347127D01*
X143761500Y-71347128D01*
X143761500Y-71347132D01*
X143761500Y-72442876D01*
X143767908Y-72502481D01*
X143818203Y-72637329D01*
X143818207Y-72637335D01*
X143904453Y-72752545D01*
X143946756Y-72784213D01*
X144004067Y-72851733D01*
X144026407Y-72937432D01*
X144026500Y-72943521D01*
X144026500Y-74319707D01*
X144006793Y-74406050D01*
X143951574Y-74475291D01*
X143946758Y-74479013D01*
X143919454Y-74499452D01*
X143833207Y-74614664D01*
X143833204Y-74614669D01*
X143782909Y-74749517D01*
X143776500Y-74809127D01*
X143776500Y-74809128D01*
X143776500Y-74809132D01*
X143776500Y-76904876D01*
X143782908Y-76964481D01*
X143785663Y-76971868D01*
X143833203Y-77099329D01*
X143838178Y-77112666D01*
X143836086Y-77113446D01*
X143854993Y-77180360D01*
X143839712Y-77267595D01*
X143788093Y-77339560D01*
X143710362Y-77382002D01*
X143656252Y-77389500D01*
X137897748Y-77389500D01*
X137811405Y-77369793D01*
X137742164Y-77314574D01*
X137703737Y-77234782D01*
X137703737Y-77146218D01*
X137716369Y-77112870D01*
X137715822Y-77112666D01*
X137720796Y-77099331D01*
X137771091Y-76964483D01*
X137777500Y-76904873D01*
X137777499Y-74809128D01*
X137777499Y-74809127D01*
X137777499Y-74809123D01*
X137771091Y-74749518D01*
X137720796Y-74614670D01*
X137720796Y-74614669D01*
X137656647Y-74528977D01*
X137634546Y-74499453D01*
X137519332Y-74413204D01*
X137519331Y-74413203D01*
X137492992Y-74403380D01*
X137418980Y-74354742D01*
X137378683Y-74293081D01*
X137378463Y-74292551D01*
X137378463Y-74292548D01*
X137361382Y-74251312D01*
X137331312Y-74178714D01*
X137331308Y-74178708D01*
X137294960Y-74124310D01*
X137294959Y-74124309D01*
X137273219Y-74091774D01*
X137262858Y-74076267D01*
X137175733Y-73989142D01*
X137170746Y-73984155D01*
X137170731Y-73984141D01*
X135407297Y-72220707D01*
X135407277Y-72220685D01*
X135313217Y-72126625D01*
X135313212Y-72126621D01*
X135288683Y-72110231D01*
X135239624Y-72077451D01*
X135239623Y-72077450D01*
X135210769Y-72058169D01*
X135210761Y-72058165D01*
X135130273Y-72024826D01*
X135130273Y-72024827D01*
X135096933Y-72011017D01*
X135086907Y-72009023D01*
X135036509Y-71998998D01*
X135016368Y-71994992D01*
X134976089Y-71986980D01*
X134976087Y-71986980D01*
X134976086Y-71986980D01*
X125588127Y-71986980D01*
X125464913Y-71986980D01*
X125464911Y-71986980D01*
X125424631Y-71994992D01*
X125404491Y-71998998D01*
X125344071Y-72011016D01*
X125344064Y-72011018D01*
X125296917Y-72030546D01*
X125296917Y-72030547D01*
X125263576Y-72044357D01*
X125230234Y-72058168D01*
X125230234Y-72058169D01*
X125127790Y-72126619D01*
X125127783Y-72126625D01*
X125040659Y-72213750D01*
X124300418Y-72953990D01*
X124225429Y-73001109D01*
X124137423Y-73011025D01*
X124053830Y-72981774D01*
X123991206Y-72919150D01*
X123961955Y-72835557D01*
X123960706Y-72814112D01*
X123960580Y-72784213D01*
X123934840Y-66657836D01*
X123954184Y-66571411D01*
X124009111Y-66501938D01*
X124088742Y-66463177D01*
X124133838Y-66458000D01*
X150786662Y-66458000D01*
X150873005Y-66477707D01*
G37*
%TD.AperFunction*%
%TA.AperFunction,Conductor*%
G36*
X124343631Y-87058125D02*
G01*
X124360925Y-87073515D01*
X124827402Y-87539992D01*
X124874521Y-87614980D01*
X124883998Y-87699096D01*
X124884736Y-87699161D01*
X124884416Y-87702808D01*
X124884437Y-87702987D01*
X124884345Y-87703620D01*
X124866282Y-87910090D01*
X124865328Y-87921000D01*
X124883979Y-88134183D01*
X124883979Y-88134186D01*
X124883980Y-88134187D01*
X124939366Y-88340890D01*
X124939368Y-88340894D01*
X125029804Y-88534835D01*
X125029806Y-88534839D01*
X125152549Y-88710133D01*
X125303866Y-88861450D01*
X125479160Y-88984193D01*
X125535886Y-89010645D01*
X125605810Y-89064996D01*
X125645228Y-89144304D01*
X125646331Y-89232861D01*
X125608903Y-89313126D01*
X125540354Y-89369203D01*
X125535886Y-89371355D01*
X125479160Y-89397806D01*
X125303866Y-89520549D01*
X125152551Y-89671865D01*
X125029806Y-89847160D01*
X125029804Y-89847164D01*
X124939368Y-90041105D01*
X124939366Y-90041109D01*
X124902209Y-90179781D01*
X124883979Y-90247817D01*
X124865328Y-90461000D01*
X124883979Y-90674183D01*
X124883979Y-90674186D01*
X124883980Y-90674187D01*
X124939366Y-90880890D01*
X124939368Y-90880894D01*
X125029804Y-91074835D01*
X125029806Y-91074839D01*
X125152549Y-91250133D01*
X125303866Y-91401450D01*
X125479160Y-91524193D01*
X125479164Y-91524195D01*
X125673111Y-91614634D01*
X125879817Y-91670021D01*
X126093000Y-91688672D01*
X126306183Y-91670021D01*
X126512889Y-91614634D01*
X126706836Y-91524195D01*
X126882132Y-91401451D01*
X127033451Y-91250132D01*
X127156195Y-91074836D01*
X127246634Y-90880889D01*
X127302021Y-90674183D01*
X127309965Y-90583374D01*
X127337122Y-90499079D01*
X127367490Y-90460008D01*
X128947713Y-88879786D01*
X129022702Y-88832667D01*
X129088427Y-88821500D01*
X132185572Y-88821500D01*
X132271915Y-88841207D01*
X132326286Y-88879786D01*
X133463286Y-90016786D01*
X133510405Y-90091774D01*
X133520321Y-90179781D01*
X133491070Y-90263374D01*
X133428446Y-90325998D01*
X133344853Y-90355249D01*
X133322572Y-90356500D01*
X132229123Y-90356500D01*
X132169518Y-90362908D01*
X132034670Y-90413203D01*
X132034664Y-90413207D01*
X131919452Y-90499454D01*
X131917714Y-90501193D01*
X131914079Y-90503476D01*
X131908060Y-90507983D01*
X131907691Y-90507490D01*
X131842726Y-90548312D01*
X131754719Y-90558228D01*
X131671126Y-90528977D01*
X131636286Y-90501193D01*
X131634547Y-90499454D01*
X131519335Y-90413207D01*
X131519331Y-90413204D01*
X131384483Y-90362909D01*
X131324873Y-90356500D01*
X131324867Y-90356500D01*
X130229123Y-90356500D01*
X130169518Y-90362908D01*
X130034670Y-90413203D01*
X130034664Y-90413207D01*
X129919453Y-90499453D01*
X129833207Y-90614664D01*
X129833204Y-90614669D01*
X129782909Y-90749517D01*
X129776500Y-90809127D01*
X129776500Y-90809128D01*
X129776500Y-90809132D01*
X129776500Y-92904876D01*
X129782908Y-92964481D01*
X129833203Y-93099329D01*
X129833207Y-93099335D01*
X129919453Y-93214546D01*
X129951328Y-93238407D01*
X130034669Y-93300796D01*
X130169517Y-93351091D01*
X130229127Y-93357500D01*
X131324872Y-93357499D01*
X131324876Y-93357499D01*
X131364612Y-93353227D01*
X131384483Y-93351091D01*
X131519331Y-93300796D01*
X131634546Y-93214546D01*
X131634547Y-93214545D01*
X131636286Y-93212807D01*
X131639920Y-93210523D01*
X131645940Y-93206017D01*
X131646308Y-93206509D01*
X131711274Y-93165688D01*
X131799281Y-93155772D01*
X131882874Y-93185023D01*
X131917714Y-93212807D01*
X131919452Y-93214545D01*
X131951328Y-93238407D01*
X132034669Y-93300796D01*
X132169517Y-93351091D01*
X132229127Y-93357500D01*
X133324872Y-93357499D01*
X133324876Y-93357499D01*
X133364612Y-93353227D01*
X133384483Y-93351091D01*
X133519331Y-93300796D01*
X133558244Y-93271665D01*
X133639171Y-93235699D01*
X133727693Y-93238407D01*
X133806274Y-93279255D01*
X133859349Y-93350153D01*
X133876500Y-93430973D01*
X133876500Y-94415704D01*
X133856793Y-94502047D01*
X133818214Y-94556418D01*
X133777291Y-94597340D01*
X133777286Y-94597347D01*
X133685187Y-94746663D01*
X133685186Y-94746665D01*
X133630002Y-94913198D01*
X133630001Y-94913200D01*
X133630001Y-94913203D01*
X133619500Y-95015991D01*
X133619500Y-95015998D01*
X133619500Y-95015999D01*
X133619500Y-96066007D01*
X133619501Y-96066013D01*
X133630000Y-96168795D01*
X133685186Y-96335334D01*
X133685187Y-96335336D01*
X133768350Y-96470165D01*
X133796904Y-96553999D01*
X133786257Y-96641919D01*
X133738516Y-96716514D01*
X133663138Y-96763007D01*
X133597107Y-96773625D01*
X124257303Y-96685844D01*
X124171149Y-96665326D01*
X124102429Y-96609460D01*
X124064755Y-96529309D01*
X124060175Y-96487689D01*
X124021214Y-87215058D01*
X124040557Y-87128640D01*
X124095484Y-87059167D01*
X124175115Y-87020406D01*
X124263677Y-87020034D01*
X124343631Y-87058125D01*
G37*
%TD.AperFunction*%
%TD*%
M02*
