M48
; DRILL file {KiCad 8.0.0} date 2024-04-23T14:31:45+0200
; FORMAT={-:-/ absolute / inch / decimal}
; #@! TF.CreationDate,2024-04-23T14:31:45+02:00
; #@! TF.GenerationSoftware,Kicad,Pcbnew,8.0.0
; #@! TF.FileFunction,Plated,1,2,PTH
FMAT,2
INCH
; #@! TA.AperFunction,Plated,PTH,ViaDrill
T1C0.0197
; #@! TA.AperFunction,Plated,PTH,ComponentDrill
T2C0.0350
%
G90
G05
T1
X4.9623Y-2.6635
X4.9623Y-2.7515
X4.9643Y-3.7625
X5.0465Y-2.6635
X5.0513Y-3.7625
X5.1307Y-2.6635
X5.1383Y-3.7625
X5.2148Y-2.6635
X5.2253Y-3.7625
X5.299Y-2.6635
X5.3832Y-2.6635
X5.4674Y-2.6635
X5.4763Y-3.7625
X5.5516Y-2.6635
X5.5603Y-3.7625
X5.6357Y-2.6635
X5.6443Y-3.7625
X5.7199Y-2.6635
X5.7283Y-3.7625
X5.8041Y-2.6635
X5.8123Y-3.7625
X5.8883Y-2.6635
X5.8903Y-2.7545
X5.8963Y-3.7625
T2
X4.9643Y-2.9615
X4.9643Y-3.0615
X4.9643Y-3.1615
X4.9643Y-3.2615
X4.9643Y-3.3615
X4.9643Y-3.4615
X4.9643Y-3.5615
X4.9643Y-3.6615
X5.8643Y-2.9615
X5.8643Y-3.0615
X5.8643Y-3.1615
X5.8643Y-3.2615
X5.8643Y-3.3615
X5.8643Y-3.4615
X5.8643Y-3.5615
X5.8643Y-3.6615
M30
